<!DOCTYPE svg PUBLIC "-//W3C//DTD SVG 1.1//EN" "http://www.w3.org/Graphics/SVG/1.1/DTD/svg11.dtd">
<!-- Custom Exit Icon (X) -->
<svg width="800px" height="800px" viewBox="0 0 24 24" fill="none" xmlns="http://www.w3.org/2000/svg">

    <g id="SVGRepo_bgCarrier" stroke-width="0"/>

    <g id="SVGRepo_tracerCarrier" stroke-linecap="round" stroke-linejoin="round"/>

    <g id="SVGRepo_iconCarrier">
        <path fill-rule="evenodd" clip-rule="evenodd"
              d="M6.34315 6.34315C6.73367 5.95262 7.36683 5.95262 7.75736 6.34315L12 10.5858L16.2426 6.34315C16.6332 5.95262 17.2663 5.95262 17.6569 6.34315C18.0474 6.73367 18.0474 7.36683 17.6569 7.75736L13.4142 12L17.6569 16.2426C18.0474 16.6332 18.0474 17.2663 17.6569 17.6569C17.2663 18.0474 16.6332 18.0474 16.2426 17.6569L12 13.4142L7.75736 17.6569C7.36683 18.0474 6.73367 18.0474 6.34315 17.6569C5.95262 17.2663 5.95262 16.6332 6.34315 16.2426L10.5858 12L6.34315 7.75736C5.95262 7.36683 5.95262 6.73367 6.34315 6.34315Z"
              fill="#757575"/>
    </g>

</svg>
